<?xml version="1.0" encoding="UTF-8"?><svg id="Layer_2" xmlns="http://www.w3.org/2000/svg" viewBox="0 0 502.95 299.77"><g id="Layer_1-2"><g id="Path_7"><path d="M499.94,299.77c-1.46,0-2.74-1.06-2.96-2.55-.32-2.11-1.08-6.53-2.61-12.42-.42-1.6,.55-3.24,2.15-3.66,1.6-.41,3.24,.55,3.66,2.15,1.59,6.16,2.4,10.81,2.74,13.03,.25,1.64-.88,3.17-2.52,3.42-.15,.02-.3,.03-.45,.03Zm-6.43-25.17c-1.24,0-2.41-.78-2.83-2.02-1.01-2.91-2.11-5.82-3.28-8.67-.44-1.06-.89-2.14-1.37-3.23-.66-1.52,.03-3.29,1.55-3.95,1.52-.66,3.29,.03,3.95,1.55,.49,1.13,.96,2.24,1.42,3.34,1.21,2.95,2.36,5.97,3.4,8.99,.54,1.57-.29,3.27-1.85,3.82-.33,.11-.66,.17-.98,.17Zm-10.37-23.83c-1.08,0-2.12-.58-2.65-1.6-2-3.77-4.16-7.48-6.42-11.03-.89-1.4-.48-3.25,.92-4.14,1.4-.89,3.25-.48,4.14,.92,2.35,3.69,4.59,7.54,6.66,11.45,.78,1.46,.22,3.28-1.25,4.06-.45,.24-.93,.35-1.4,.35Zm-13.97-21.91c-.91,0-1.8-.41-2.39-1.19-2.58-3.39-5.31-6.69-8.14-9.8-1.11-1.23-1.02-3.12,.21-4.24,1.23-1.11,3.12-1.02,4.24,.21,2.94,3.24,5.79,6.67,8.47,10.2,1,1.32,.75,3.2-.57,4.2-.54,.41-1.18,.61-1.81,.61Zm-17.45-19.24c-.73,0-1.46-.26-2.04-.8-3.11-2.87-6.38-5.64-9.72-8.21-1.31-1.01-1.55-2.9-.54-4.21,1.01-1.31,2.9-1.56,4.21-.54,3.48,2.69,6.89,5.57,10.13,8.56,1.22,1.12,1.29,3.02,.17,4.24-.59,.64-1.4,.96-2.2,.96Zm-20.56-15.86c-.55,0-1.11-.15-1.61-.47-3.54-2.26-7.25-4.41-11.02-6.38-1.47-.77-2.04-2.58-1.27-4.05,.77-1.47,2.58-2.04,4.05-1.27,3.92,2.05,7.78,4.28,11.47,6.64,1.4,.89,1.81,2.75,.91,4.14-.57,.9-1.54,1.39-2.53,1.39Zm-278.69-.66h0c-4.47,0-8.9-.14-13.17-.41-1.65-.1-2.91-1.53-2.8-3.18,.1-1.65,1.52-2.92,3.18-2.8,4.15,.26,8.45,.4,12.79,.4,1.66,0,3,1.34,3,3,0,1.66-1.34,3-3,3Zm12.99-.37c-1.58,0-2.9-1.23-2.99-2.83-.09-1.65,1.17-3.07,2.83-3.16,4.18-.23,8.48-.59,12.81-1.05,1.64-.19,3.13,1.02,3.3,2.67,.18,1.65-1.02,3.13-2.67,3.3-4.42,.47-8.83,.83-13.11,1.07-.06,0-.12,0-.17,0Zm-38.88-1.3c-.13,0-.27,0-.41-.03-4.43-.6-8.81-1.37-13.01-2.28-1.62-.35-2.65-1.95-2.29-3.57,.35-1.62,1.95-2.64,3.57-2.29,4.05,.88,8.27,1.62,12.54,2.2,1.64,.22,2.79,1.73,2.57,3.38-.2,1.51-1.49,2.6-2.97,2.6Zm64.73-1.43c-1.46,0-2.74-1.06-2.96-2.55-.25-1.64,.88-3.17,2.52-3.42,4.15-.63,8.42-1.37,12.69-2.19,1.63-.31,3.2,.75,3.51,2.38s-.75,3.2-2.38,3.51c-4.35,.84-8.7,1.59-12.93,2.23-.15,.02-.3,.03-.45,.03Zm-90.05-4.12c-.3,0-.6-.04-.9-.14-4.26-1.33-8.45-2.86-12.45-4.55-1.53-.64-2.24-2.4-1.6-3.93,.64-1.53,2.41-2.24,3.93-1.6,3.83,1.61,7.83,3.08,11.91,4.35,1.58,.49,2.46,2.18,1.97,3.76-.4,1.28-1.59,2.11-2.86,2.11Zm115.58-.78c-1.37,0-2.6-.94-2.92-2.33-.37-1.62,.64-3.22,2.25-3.6,4.1-.94,8.32-1.98,12.53-3.09,1.6-.42,3.24,.53,3.67,2.14,.42,1.6-.53,3.24-2.14,3.67-4.27,1.13-8.55,2.18-12.71,3.14-.23,.05-.45,.08-.67,.08Zm191.33-3.38c-.39,0-.78-.08-1.16-.24-3.86-1.63-7.88-3.14-11.94-4.49-1.57-.52-2.42-2.22-1.9-3.79,.52-1.57,2.22-2.42,3.79-1.9,4.21,1.4,8.38,2.96,12.38,4.65,1.53,.64,2.24,2.4,1.6,3.93-.48,1.15-1.6,1.84-2.77,1.84Zm-166.12-2.98c-1.35,0-2.58-.92-2.91-2.29-.39-1.61,.59-3.23,2.2-3.63,4.28-1.05,8.56-2.04,12.75-2.94,1.62-.35,3.22,.68,3.57,2.3,.35,1.62-.68,3.22-2.3,3.57-4.13,.89-8.36,1.87-12.59,2.91-.24,.06-.48,.09-.72,.09Zm-164.65-2.95c-.49,0-.98-.12-1.44-.37-3.89-2.13-7.69-4.49-11.29-7.01-1.36-.95-1.69-2.82-.74-4.18,.95-1.36,2.82-1.69,4.18-.74,3.43,2.39,7.05,4.64,10.75,6.67,1.45,.8,1.98,2.62,1.19,4.07-.55,.99-1.57,1.56-2.63,1.56Zm306.14-2.27c-.24,0-.49-.03-.74-.09-4.06-1.03-8.26-1.94-12.5-2.71-1.63-.3-2.71-1.86-2.41-3.49,.3-1.63,1.87-2.71,3.49-2.41,4.37,.8,8.71,1.74,12.89,2.8,1.61,.41,2.58,2.04,2.17,3.64-.34,1.36-1.57,2.27-2.91,2.27Zm-116.08-.27c-1.42,0-2.68-1.01-2.95-2.45-.3-1.63,.77-3.2,2.4-3.5,4.34-.8,8.68-1.54,12.91-2.19,1.64-.24,3.17,.88,3.42,2.51,.25,1.64-.88,3.17-2.51,3.42-4.17,.64-8.45,1.36-12.72,2.15-.19,.03-.37,.05-.55,.05Zm25.7-3.91c-1.5,0-2.8-1.12-2.98-2.65-.19-1.65,.99-3.14,2.63-3.33,4.39-.51,8.79-.94,13.05-1.27,1.67-.14,3.09,1.11,3.22,2.76,.13,1.65-1.11,3.1-2.76,3.22-4.19,.33-8.5,.75-12.82,1.25-.12,.01-.24,.02-.35,.02Zm64.84-.51c-.12,0-.24,0-.36-.02-4.16-.5-8.46-.89-12.77-1.16-1.65-.1-2.91-1.53-2.81-3.18s1.56-2.91,3.18-2.81c4.42,.28,8.83,.68,13.11,1.19,1.65,.2,2.82,1.69,2.62,3.33-.18,1.52-1.48,2.65-2.98,2.65Zm-38.92-1.49c-1.61,0-2.94-1.27-3-2.9-.06-1.66,1.24-3.05,2.89-3.1,3.36-.12,6.72-.18,9.99-.18,1.07,0,2.11,0,3.15,.02,1.66,.02,2.99,1.38,2.97,3.03-.02,1.65-1.36,2.97-3,2.97h-.04c-1.02-.01-2.07-.02-3.08-.02-3.2,0-6.49,.06-9.78,.17-.04,0-.07,0-.11,0Zm-262.92-6.39c-.7,0-1.4-.24-1.97-.74-3.31-2.88-6.52-6-9.54-9.26-1.13-1.21-1.06-3.11,.16-4.24,1.22-1.13,3.11-1.06,4.24,.16,2.88,3.11,5.94,6.07,9.09,8.82,1.25,1.09,1.38,2.98,.29,4.23-.59,.68-1.43,1.03-2.26,1.03Zm-17.65-18.99c-.91,0-1.8-.41-2.39-1.19-2.62-3.47-5.15-7.15-7.5-10.95-.87-1.41-.44-3.26,.97-4.13,1.41-.87,3.26-.44,4.13,.97,2.25,3.64,4.67,7.17,7.18,10.49,1,1.32,.74,3.2-.58,4.2-.54,.41-1.18,.61-1.81,.61Zm-13.7-22.06c-1.09,0-2.15-.6-2.68-1.64-1.95-3.85-3.81-7.9-5.52-12.03-.63-1.53,.09-3.29,1.63-3.92,1.53-.63,3.29,.09,3.92,1.63,1.65,3.99,3.44,7.89,5.32,11.61,.75,1.48,.16,3.28-1.32,4.03-.43,.22-.9,.32-1.35,.32Zm-9.96-24.01c-1.26,0-2.43-.79-2.85-2.05-1.37-4.1-2.64-8.35-3.78-12.65-.42-1.6,.53-3.24,2.13-3.67,1.61-.42,3.25,.53,3.67,2.13,1.11,4.18,2.34,8.31,3.67,12.29,.53,1.57-.32,3.27-1.9,3.8-.32,.1-.64,.15-.95,.15Zm-6.69-25.14c-1.4,0-2.65-.98-2.94-2.4-.87-4.24-1.64-8.6-2.29-12.98-.25-1.64,.88-3.17,2.52-3.41,1.64-.25,3.17,.89,3.41,2.52,.64,4.27,1.39,8.53,2.24,12.67,.33,1.62-.71,3.21-2.34,3.54-.2,.04-.4,.06-.6,.06Zm-3.87-25.75c-1.52,0-2.83-1.16-2.98-2.7-.43-4.34-.76-8.76-.98-13.13-.08-1.65,1.19-3.06,2.84-3.15,1.63-.07,3.06,1.19,3.15,2.85,.22,4.28,.54,8.6,.96,12.84,.16,1.65-1.04,3.12-2.69,3.28-.1,0-.2,.01-.3,.01Zm-1.3-26.04c-1.66,0-3-1.32-3-2.98C0,7.81,.4,2.95,.42,2.75,.56,1.1,2.03-.13,3.66,.01c1.65,.14,2.88,1.59,2.74,3.24,0,.05-.4,4.83-.4,12.71,0,1.66-1.34,3.02-3,3.02Z"/></g></g></svg>