<?xml version="1.0" encoding="UTF-8"?><svg id="Layer_2" xmlns="http://www.w3.org/2000/svg" viewBox="0 0 394.8 180.85"><g id="Layer_1-2"><g id="Path_11"><path d="M2.33,180.77c-1.6-.37-2.61-1.96-2.25-3.57l.07-.33c.16-.7,.61-2.62,1.35-5.54,.41-1.61,2.08-2.59,3.64-2.17,1.61,.41,2.58,2.04,2.17,3.64-.72,2.86-1.16,4.74-1.32,5.42l-.06,.27c-.36,1.62-1.96,2.64-3.58,2.28h-.03Zm4.79-18.4s-.09-.02-.14-.04c-1.6-.45-2.52-2.11-2.07-3.7,1.17-4.14,2.41-8.37,3.71-12.58,.49-1.58,2.16-2.49,3.75-1.99,1.58,.49,2.47,2.16,1.99,3.75-1.28,4.16-2.51,8.35-3.67,12.44-.44,1.55-2.01,2.47-3.56,2.11Zm7.66-24.93c-.09-.02-.18-.05-.28-.08-1.57-.52-2.42-2.22-1.9-3.79,1.39-4.17,2.83-8.33,4.29-12.39,.56-1.56,2.28-2.37,3.84-1.8,1.56,.56,2.37,2.28,1.8,3.84-1.44,4.01-2.87,8.13-4.24,12.25-.49,1.48-2.03,2.32-3.52,1.98Zm8.85-24.52c-.14-.03-.28-.08-.42-.13-1.54-.6-2.31-2.34-1.7-3.89,1.61-4.13,3.28-8.22,4.95-12.15,.65-1.52,2.4-2.24,3.93-1.59,1.53,.65,2.24,2.41,1.59,3.93-1.65,3.88-3.29,7.91-4.88,11.99-.55,1.4-2.04,2.16-3.47,1.83Zm274.98,48.1c-2.01-.46-4.07-1.07-6.12-1.79-1.56-.55-2.38-2.26-1.83-3.83,.55-1.56,2.27-2.39,3.83-1.83,4.04,1.42,8.04,2.3,11.89,2.6,1.65,.13,2.89,1.57,2.76,3.22s-1.57,2.89-3.22,2.76c-2.39-.19-4.84-.57-7.29-1.13Zm-17.56-7.18c-.28-.07-.56-.17-.83-.33-3.63-2.1-7.37-4.61-11.1-7.46-1.32-1.01-1.57-2.89-.56-4.21,1.01-1.32,2.89-1.57,4.21-.56,3.53,2.7,7.05,5.06,10.46,7.03,1.43,.83,1.93,2.66,1.1,4.1-.68,1.17-2.02,1.71-3.27,1.42Zm37.26,7.23c-1.07-.25-1.96-1.07-2.24-2.21-.39-1.61,.59-3.23,2.2-3.63,3.78-.92,7.52-2.47,11.11-4.61,1.42-.85,3.27-.38,4.11,1.04,.85,1.42,.38,3.26-1.04,4.11-4.11,2.44-8.4,4.22-12.76,5.28-.47,.11-.94,.11-1.38,0ZM33.83,88.94c-.2-.05-.4-.11-.59-.2-1.5-.7-2.15-2.48-1.46-3.99,1.89-4.05,3.82-8.03,5.76-11.81,.76-1.48,2.56-2.06,4.04-1.3,1.47,.76,2.06,2.56,1.3,4.04-1.9,3.72-3.81,7.62-5.66,11.61-.61,1.31-2.04,1.97-3.39,1.66Zm226.51,49.27c-.49-.11-.96-.35-1.36-.72-3.08-2.84-6.23-5.96-9.38-9.29-1.14-1.2-1.08-3.1,.12-4.24,1.2-1.14,3.1-1.08,4.24,.12,3.05,3.23,6.1,6.26,9.08,9,1.22,1.12,1.3,3.02,.17,4.24-.76,.82-1.87,1.12-2.88,.89Zm80.17,10.02c-.55-.13-1.07-.41-1.49-.85-1.14-1.2-1.1-3.1,.1-4.24,2.83-2.69,5.62-5.84,8.31-9.36,1.01-1.32,2.89-1.57,4.21-.56,1.32,1.01,1.57,2.89,.56,4.21-2.88,3.76-5.89,7.15-8.94,10.06-.76,.72-1.8,.97-2.75,.75Zm-98.06-28.86c-.61-.14-1.18-.47-1.61-.98-2.72-3.21-5.5-6.64-8.27-10.19-1.02-1.31-.78-3.19,.53-4.21s3.19-.78,4.21,.53c2.71,3.49,5.44,6.85,8.11,9.99,1.07,1.26,.92,3.16-.35,4.23-.75,.64-1.73,.84-2.62,.64ZM45.73,65.78c-.28-.06-.55-.17-.81-.32-1.44-.82-1.94-2.65-1.12-4.09,2.24-3.93,4.54-7.72,6.83-11.28,.9-1.39,2.76-1.79,4.15-.89,1.39,.9,1.79,2.76,.9,4.15-2.23,3.46-4.48,7.16-6.66,11-.67,1.18-2.02,1.73-3.28,1.44Zm180.75,33.11c-.68-.16-1.31-.55-1.75-1.16-2.47-3.41-4.99-7.01-7.51-10.72-.93-1.37-.58-3.24,.79-4.17,1.37-.93,3.24-.58,4.17,.79,2.49,3.65,4.98,7.21,7.41,10.57,.97,1.34,.67,3.22-.67,4.19-.73,.53-1.62,.68-2.43,.49Zm129.95,28.87c-.3-.07-.59-.19-.87-.35-1.42-.85-1.88-2.7-1.03-4.12,2.08-3.46,4.13-7.23,6.1-11.21,.73-1.49,2.53-2.1,4.02-1.36,1.49,.73,2.09,2.53,1.36,4.02-2.04,4.13-4.17,8.04-6.33,11.64-.69,1.14-2.01,1.66-3.25,1.38ZM59.88,43.93c-.39-.09-.77-.26-1.11-.52-1.33-.99-1.6-2.87-.61-4.2,2.74-3.68,5.54-7.14,8.35-10.31,1.1-1.24,2.99-1.36,4.23-.26,1.24,1.1,1.36,2.99,.26,4.23-2.69,3.04-5.39,6.38-8.03,9.92-.73,.99-1.96,1.39-3.08,1.13Zm151.93,33.49c-.72-.17-1.38-.59-1.82-1.25-2.44-3.65-4.92-7.21-7.35-10.59-.97-1.34-.67-3.22,.68-4.19,1.34-.97,3.22-.66,4.19,.68,2.48,3.44,4.99,7.06,7.47,10.76,.92,1.38,.55,3.24-.82,4.16-.72,.48-1.57,.61-2.34,.43Zm156.21,27.06c-.16-.04-.33-.09-.49-.16-1.53-.64-2.25-2.4-1.61-3.92,1.59-3.8,3.15-7.84,4.65-11.99,.56-1.56,2.28-2.36,3.84-1.81,1.56,.56,2.37,2.28,1.81,3.84-1.53,4.25-3.13,8.38-4.76,12.27-.57,1.37-2.04,2.09-3.44,1.77ZM196.58,56.36c-.64-.15-1.24-.51-1.68-1.07-2.72-3.47-5.48-6.8-8.18-9.9-1.09-1.25-.96-3.14,.29-4.23,1.25-1.09,3.14-.96,4.23,.29,2.77,3.18,5.59,6.59,8.38,10.13,1.02,1.3,.8,3.19-.5,4.21-.74,.58-1.68,.76-2.53,.56ZM77.18,24.55c-.58-.13-1.12-.44-1.55-.91-1.11-1.23-1.02-3.12,.21-4.24,3.45-3.13,7-5.92,10.54-8.3,1.38-.92,3.24-.56,4.16,.82,.92,1.38,.56,3.24-.82,4.16-3.3,2.22-6.61,4.83-9.85,7.77-.76,.69-1.77,.91-2.69,.7Zm102.29,12.25c-.53-.12-1.04-.39-1.46-.81-3.1-3.14-6.23-6.08-9.3-8.73-1.25-1.08-1.39-2.98-.31-4.23,1.08-1.25,2.98-1.39,4.23-.31,3.19,2.75,6.44,5.8,9.65,9.05,1.16,1.18,1.15,3.08-.03,4.24-.76,.75-1.82,1.01-2.79,.79Zm197.38,43.22c-.08-.02-.15-.04-.22-.06-1.58-.49-2.46-2.18-1.97-3.76,1.25-3.99,2.47-8.16,3.63-12.39,.44-1.6,2.08-2.52,3.69-2.1,1.6,.44,2.54,2.09,2.1,3.69-1.18,4.3-2.42,8.54-3.69,12.59-.47,1.51-2.02,2.38-3.53,2.03ZM98.73,10.29c-.9-.21-1.7-.83-2.09-1.75-.65-1.52,.06-3.29,1.58-3.94,4.27-1.82,8.65-3.14,13.02-3.91,1.63-.29,3.19,.8,3.47,2.44,.29,1.63-.8,3.19-2.44,3.47-3.92,.69-7.85,1.87-11.7,3.51-.61,.26-1.25,.3-1.85,.16Zm61.03,9.63c-.36-.08-.72-.24-1.04-.46-3.6-2.51-7.22-4.7-10.76-6.51-1.48-.75-2.06-2.56-1.31-4.04,.75-1.48,2.56-2.06,4.04-1.31,3.78,1.93,7.64,4.27,11.46,6.93,1.36,.95,1.69,2.82,.74,4.18-.72,1.03-1.98,1.48-3.14,1.21ZM123.94,5.92c-1.41-.33-2.42-1.64-2.31-3.14,.12-1.65,1.55-2.9,3.2-2.78,4.4,.31,8.9,1.16,13.34,2.5,1.59,.48,2.48,2.15,2,3.74-.48,1.59-2.15,2.49-3.74,2-4.01-1.21-8.07-1.98-12.03-2.26-.16-.01-.32-.03-.47-.07ZM383.75,54.92h-.03c-1.61-.39-2.6-2.01-2.22-3.62,.29-1.23,.58-2.44,.85-3.63,.68-2.96,1.35-5.98,1.97-8.98,.34-1.62,1.93-2.66,3.55-2.32,1.66,.37,2.66,1.93,2.32,3.55-.64,3.04-1.31,6.1-2,9.1-.28,1.21-.57,2.43-.87,3.68-.38,1.6-1.99,2.59-3.59,2.22Zm5.32-25.46c-1.55-.36-2.56-1.87-2.28-3.45,1.39-7.79,2.03-12.66,2.03-12.7,.21-1.64,1.72-2.8,3.36-2.59,1.65,.21,2.8,1.72,2.59,3.36-.03,.2-.66,5.04-2.08,12.99-.29,1.63-1.85,2.72-3.48,2.43-.05,0-.1-.02-.15-.03Z"/></g></g></svg>