<?xml version="1.0" encoding="UTF-8"?><svg id="Layer_2" xmlns="http://www.w3.org/2000/svg" viewBox="0 0 422.88 418.05"><g id="Layer_1-2"><g id="Path_7"><path d="M419.19,418.05c-.11,0-.22,0-.33-.02-1.65-.18-2.84-1.66-2.66-3.31,.23-2.15,.63-6.65,.67-12.68,.01-1.65,1.35-2.98,3-2.98h.02c1.66,.01,2.99,1.36,2.98,3.02-.04,5.98-.41,10.52-.7,13.28-.17,1.54-1.47,2.68-2.98,2.68Zm.25-25.97c-1.56,0-2.87-1.2-2.99-2.78-.22-3-.52-6.03-.91-9.01-.16-1.21-.33-2.43-.51-3.67-.25-1.64,.88-3.17,2.52-3.42,1.64-.24,3.17,.88,3.42,2.52,.19,1.29,.37,2.55,.53,3.8,.4,3.09,.72,6.24,.94,9.35,.12,1.65-1.12,3.09-2.77,3.21-.07,0-.15,0-.22,0Zm-3.88-25.7c-1.37,0-2.6-.94-2.92-2.33-.96-4.16-2.09-8.3-3.36-12.32-.5-1.58,.38-3.27,1.96-3.77,1.58-.5,3.27,.38,3.77,1.96,1.32,4.16,2.49,8.46,3.49,12.78,.37,1.61-.63,3.23-2.25,3.6-.23,.05-.45,.08-.68,.08Zm-7.85-24.77c-1.18,0-2.3-.7-2.78-1.86-1.62-3.94-3.42-7.83-5.34-11.57-.76-1.47-.18-3.28,1.29-4.04,1.48-.76,3.28-.18,4.04,1.29,2,3.89,3.87,7.93,5.56,12.03,.63,1.53-.1,3.29-1.63,3.92-.37,.15-.76,.23-1.14,.23Zm-11.9-23.08c-.99,0-1.97-.49-2.54-1.4-2.26-3.57-4.71-7.08-7.28-10.44-1.01-1.32-.76-3.2,.56-4.21,1.32-1.01,3.2-.76,4.21,.56,2.68,3.5,5.23,7.16,7.58,10.88,.89,1.4,.47,3.25-.93,4.14-.5,.32-1.05,.47-1.6,.47Zm-15.78-20.61c-.81,0-1.62-.33-2.21-.97-2.84-3.1-5.87-6.12-9-9-1.22-1.12-1.3-3.02-.18-4.24,1.12-1.22,3.02-1.3,4.24-.18,3.26,2.99,6.41,6.14,9.37,9.36,1.12,1.22,1.04,3.12-.18,4.24-.58,.53-1.3,.79-2.03,.79Zm-19.11-17.55c-.64,0-1.29-.21-1.84-.63-3.31-2.57-6.8-5.06-10.38-7.41-1.38-.91-1.77-2.77-.86-4.16,.91-1.38,2.77-1.77,4.16-.86,3.71,2.44,7.33,5.02,10.76,7.68,1.31,1.02,1.55,2.9,.53,4.21-.59,.76-1.48,1.16-2.37,1.16Zm-21.67-14.27c-.49,0-1-.12-1.46-.38-3.66-2.04-7.48-4-11.37-5.84-1.5-.71-2.14-2.5-1.43-4,.71-1.5,2.5-2.14,4-1.43,4.01,1.89,7.95,3.92,11.73,6.02,1.45,.81,1.97,2.63,1.16,4.08-.55,.98-1.57,1.54-2.62,1.54Zm-23.45-11.11c-.37,0-.75-.07-1.11-.21-3.88-1.55-7.93-3.03-12.03-4.41-1.57-.53-2.42-2.23-1.89-3.8,.53-1.57,2.23-2.42,3.8-1.89,4.21,1.41,8.37,2.94,12.35,4.53,1.54,.61,2.29,2.36,1.67,3.9-.47,1.17-1.6,1.89-2.79,1.89Zm-24.6-8.28c-.27,0-.54-.04-.81-.11-4.04-1.13-8.23-2.2-12.45-3.17-1.62-.37-2.62-1.98-2.25-3.6s1.98-2.62,3.6-2.25c4.31,.99,8.59,2.08,12.72,3.23,1.6,.45,2.53,2.1,2.08,3.7-.37,1.33-1.58,2.19-2.89,2.19Zm-25.3-5.84c-.18,0-.37-.02-.55-.05-4.13-.77-8.4-1.48-12.7-2.11-1.64-.24-2.77-1.76-2.53-3.4s1.76-2.77,3.4-2.53c4.38,.64,8.72,1.36,12.93,2.14,1.63,.3,2.7,1.87,2.4,3.5-.27,1.44-1.53,2.45-2.95,2.45Zm-25.7-3.78c-.11,0-.22,0-.33-.02-4.18-.46-8.5-.87-12.84-1.21-1.65-.13-2.89-1.57-2.76-3.22,.13-1.65,1.57-2.89,3.22-2.76,4.4,.34,8.78,.76,13.03,1.23,1.65,.18,2.83,1.67,2.65,3.31-.17,1.53-1.47,2.67-2.98,2.67Zm-25.9-2.04s-.1,0-.15,0c-4.23-.21-8.57-.36-12.9-.45-1.66-.04-2.97-1.41-2.94-3.06,.04-1.66,1.43-2.93,3.06-2.94,4.38,.09,8.78,.25,13.06,.45,1.66,.08,2.93,1.49,2.85,3.14-.08,1.61-1.4,2.86-2.99,2.86Zm-25.98-.57h-.01c-4.44-.02-8.85-.11-13.09-.26-1.66-.06-2.95-1.45-2.89-3.11,.06-1.66,1.45-2.96,3.11-2.89,4.18,.15,8.52,.24,12.9,.26,1.66,0,2.99,1.36,2.99,3.01,0,1.65-1.35,2.99-3,2.99Zm-25.96-.96c-.07,0-.15,0-.22,0-4.42-.32-8.81-.72-13.05-1.19-1.65-.18-2.83-1.67-2.65-3.32,.18-1.65,1.67-2.83,3.32-2.65,4.16,.47,8.47,.86,12.82,1.17,1.65,.12,2.9,1.55,2.78,3.21-.11,1.58-1.43,2.79-2.99,2.79Zm-25.81-2.91c-.15,0-.31-.01-.47-.04-4.4-.69-8.75-1.49-12.92-2.36-1.62-.34-2.66-1.93-2.32-3.55,.34-1.62,1.93-2.66,3.55-2.32,4.08,.85,8.33,1.63,12.63,2.3,1.64,.26,2.75,1.79,2.5,3.43-.23,1.48-1.51,2.54-2.96,2.54Zm-25.41-5.33c-.26,0-.52-.03-.78-.1-4.31-1.16-8.55-2.44-12.61-3.8-1.57-.53-2.41-2.23-1.88-3.8,.53-1.57,2.23-2.42,3.8-1.88,3.94,1.33,8.06,2.57,12.25,3.69,1.6,.43,2.55,2.07,2.12,3.67-.36,1.34-1.57,2.22-2.9,2.22Zm-24.58-8.32c-.39,0-.78-.08-1.16-.23-4.12-1.73-8.15-3.6-11.98-5.58-1.47-.76-2.05-2.57-1.29-4.04,.76-1.47,2.57-2.05,4.04-1.29,3.69,1.9,7.57,3.71,11.55,5.38,1.53,.64,2.25,2.4,1.61,3.93-.48,1.15-1.6,1.84-2.77,1.84Zm-23.03-11.92c-.55,0-1.1-.15-1.6-.47-3.77-2.39-7.42-4.95-10.86-7.62-1.31-1.02-1.54-2.9-.53-4.21,1.02-1.31,2.9-1.54,4.21-.53,3.28,2.55,6.78,5.01,10.38,7.29,1.4,.89,1.82,2.74,.93,4.14-.57,.9-1.54,1.4-2.54,1.4Zm-20.44-15.94c-.75,0-1.49-.28-2.08-.83-3.2-3.07-6.26-6.33-9.09-9.7-1.07-1.27-.9-3.16,.37-4.23,1.27-1.06,3.16-.9,4.23,.37,2.7,3.21,5.61,6.31,8.66,9.23,1.2,1.15,1.24,3.05,.09,4.24-.59,.61-1.38,.92-2.17,.92Zm-16.68-19.84c-.97,0-1.91-.47-2.49-1.33-2.45-3.65-4.74-7.49-6.82-11.42-.77-1.47-.21-3.28,1.25-4.05,1.46-.77,3.28-.21,4.05,1.25,1.98,3.75,4.16,7.41,6.49,10.88,.92,1.38,.56,3.24-.82,4.16-.51,.34-1.09,.51-1.67,.51Zm-12.13-22.93c-1.19,0-2.31-.71-2.78-1.87-1.64-4.03-3.12-8.24-4.4-12.52-.48-1.59,.42-3.26,2.01-3.74,1.59-.48,3.26,.42,3.74,2.01,1.23,4.1,2.65,8.14,4.22,11.99,.62,1.54-.12,3.29-1.65,3.91-.37,.15-.75,.22-1.13,.22Zm-7.52-24.86c-1.39,0-2.64-.97-2.93-2.38-.89-4.23-1.63-8.62-2.21-13.05-.21-1.64,.94-3.15,2.59-3.36,1.64-.21,3.15,.94,3.36,2.59,.56,4.28,1.27,8.51,2.13,12.59,.34,1.62-.7,3.21-2.32,3.55-.21,.04-.42,.06-.62,.06Zm-3.39-25.77c-1.57,0-2.9-1.23-2.99-2.82-.25-4.09-.37-8.3-.37-12.53v-.66c0-1.65,1.35-2.99,3-2.99h0c1.66,0,3,1.35,2.99,3.01v.65c0,4.11,.12,8.2,.36,12.17,.1,1.65-1.16,3.08-2.81,3.18-.06,0-.12,0-.18,0Zm.06-26c-.06,0-.12,0-.18,0-1.65-.1-2.91-1.52-2.81-3.18,.26-4.3,.65-8.72,1.15-13.11,.19-1.65,1.68-2.83,3.32-2.64,1.65,.19,2.83,1.67,2.64,3.32-.49,4.29-.87,8.6-1.12,12.8-.1,1.59-1.42,2.82-2.99,2.82Zm2.93-25.84c-.16,0-.33-.01-.49-.04-1.63-.27-2.74-1.81-2.47-3.45,.71-4.3,1.53-8.65,2.45-12.92,.35-1.62,1.95-2.65,3.56-2.3,1.62,.35,2.65,1.94,2.3,3.56-.9,4.18-1.7,8.44-2.4,12.64-.24,1.47-1.51,2.51-2.96,2.51Zm5.46-25.43c-.26,0-.52-.03-.78-.1-1.6-.43-2.55-2.07-2.12-3.67,2.12-7.91,3.77-12.52,3.84-12.71,.56-1.56,2.28-2.37,3.84-1.8,1.56,.56,2.37,2.28,1.81,3.84-.02,.04-1.64,4.59-3.69,12.23-.36,1.34-1.57,2.23-2.9,2.23Z"/></g></g></svg>