<svg xmlns="http://www.w3.org/2000/svg" xmlns:xlink="http://www.w3.org/1999/xlink" version="1.1" x="0px" y="0px" viewBox="0 0 421.06 526.325" style="enable-background:new 0 0 421.06 421.06;" xml:space="preserve"><g><circle style="" cx="99.433" cy="315.389" r="20.321" fill="#010002"/><circle style="" cx="173.947" cy="315.389" r="20.321" fill="#010002"/><circle style="" cx="247.105" cy="315.389" r="20.321" fill="#010002"/><circle style="" cx="328.39" cy="315.389" r="20.321" fill="#010002"/><circle style="" cx="247.105" cy="246.288" r="20.321" fill="#010002"/><path style="" d="M351.24,40.635h-2.528C348.704,18.184,330.512,0,308.069,0c-22.443,0-40.643,18.184-40.643,40.635   H160.397C160.389,18.184,142.197,0,119.754,0S79.111,18.184,79.111,40.635H69.78c-35.042,0-63.387,28.434-63.387,63.395v0.041   v253.595c0,35.002,28.352,63.395,63.387,63.395h281.46c35.002,0,63.427-28.393,63.427-63.395V104.07v-0.041   C414.667,69.069,386.241,40.635,351.24,40.635z M372.098,356.503c0,10.437-8.486,18.964-18.948,18.964H70.544   c-10.461,0-18.98-8.527-18.98-18.964V192.769h320.534V356.503z" fill="#010002"/><circle style="" cx="328.39" cy="246.288" r="20.321" fill="#010002"/></g><text x="0" y="436.06" fill="#000000" font-size="5px" font-weight="bold" font-family="'Helvetica Neue', Helvetica, Arial-Unicode, Arial, Sans-serif">Created by Abhishek Rana</text><text x="0" y="441.06" fill="#000000" font-size="5px" font-weight="bold" font-family="'Helvetica Neue', Helvetica, Arial-Unicode, Arial, Sans-serif">from the Noun Project</text></svg>